<?xml version="1.0" encoding="UTF-8" standalone="no"?><svg xmlns="http://www.w3.org/2000/svg" xmlns:xlink="http://www.w3.org/1999/xlink" contentScriptType="application/ecmascript" contentStyleType="text/css" height="177px" preserveAspectRatio="none" style="width:610px;height:177px;" version="1.1" viewBox="0 0 610 177" width="610px" zoomAndPan="magnify"><defs><filter height="300%" id="f1fqqfcb7b1wkx" width="300%" x="-1" y="-1"><feGaussianBlur result="blurOut" stdDeviation="2.0"/><feColorMatrix in="blurOut" result="blurOut2" type="matrix" values="0 0 0 0 0 0 0 0 0 0 0 0 0 0 0 0 0 0 .4 0"/><feOffset dx="4.0" dy="4.0" in="blurOut2" result="blurOut3"/><feBlend in="SourceGraphic" in2="blurOut3" mode="normal"/></filter></defs><g><rect fill="#FEFECE" filter="url(#f1fqqfcb7b1wkx)" height="35.0938" style="stroke:#A80036;stroke-width:1.5;" width="82" x="7" y="121.5"/><text fill="#000000" font-family="sans-serif" font-size="12" lengthAdjust="spacingAndGlyphs" textLength="68" x="14" y="135.957">cl_device_id</text><line style="stroke:#A80036;stroke-width:1.5;" x1="8" x2="88" y1="140.5938" y2="140.5938"/><!--MD5=[6754354365917abf8f1a56af1b7e344c]
class Context--><rect fill="#FEFECE" filter="url(#f1fqqfcb7b1wkx)" height="48" id="Context" style="stroke:#A80036;stroke-width:1.5;" width="73" x="290.5" y="7"/><ellipse cx="305.5" cy="23" fill="#ADD1B2" rx="11" ry="11" style="stroke:#A80036;stroke-width:1.0;"/><path d="M308.2656,18.875 Q308.4219,18.6563 308.6094,18.5469 Q308.7969,18.4375 309.0156,18.4375 Q309.3906,18.4375 309.625,18.6953 Q309.8594,18.9531 309.8594,19.5625 L309.8594,21.0156 Q309.8594,21.625 309.625,21.8906 Q309.3906,22.1563 309.0156,22.1563 Q308.6719,22.1563 308.4688,21.9531 Q308.2656,21.7656 308.1563,21.25 Q308.1094,20.8906 307.9219,20.7031 Q307.5938,20.3281 306.9844,20.1094 Q306.375,19.8906 305.75,19.8906 Q304.9844,19.8906 304.3516,20.2188 Q303.7188,20.5469 303.2266,21.2969 Q302.7344,22.0469 302.7344,23.0781 L302.7344,24.1719 Q302.7344,25.4063 303.625,26.2266 Q304.5156,27.0469 306.1094,27.0469 Q307.0469,27.0469 307.7031,26.7969 Q308.0938,26.6406 308.5156,26.2031 Q308.7813,25.9375 308.9297,25.8594 Q309.0781,25.7813 309.2813,25.7813 Q309.6094,25.7813 309.8672,26.0391 Q310.125,26.2969 310.125,26.6406 Q310.125,26.9844 309.7813,27.3906 Q309.2813,27.9688 308.4844,28.2969 Q307.4063,28.75 306.1094,28.75 Q304.5938,28.75 303.3906,28.125 Q302.4063,27.625 301.7188,26.5547 Q301.0313,25.4844 301.0313,24.2031 L301.0313,23.0469 Q301.0313,21.7188 301.6484,20.5703 Q302.2656,19.4219 303.3594,18.8047 Q304.4531,18.1875 305.6875,18.1875 Q306.4219,18.1875 307.0703,18.3516 Q307.7188,18.5156 308.2656,18.875 Z " fill="#000000"/><text fill="#000000" font-family="sans-serif" font-size="12" lengthAdjust="spacingAndGlyphs" textLength="41" x="319.5" y="27.9102">Context</text><line style="stroke:#A80036;stroke-width:1.5;" x1="291.5" x2="362.5" y1="39" y2="39"/><line style="stroke:#A80036;stroke-width:1.5;" x1="291.5" x2="362.5" y1="47" y2="47"/><!--MD5=[8ad5f43107e1b4d7c118456659769e46]
class CommandQueue--><rect fill="#FEFECE" filter="url(#f1fqqfcb7b1wkx)" height="48" id="CommandQueue" style="stroke:#A80036;stroke-width:1.5;" width="128" x="124" y="115"/><ellipse cx="139" cy="131" fill="#ADD1B2" rx="11" ry="11" style="stroke:#A80036;stroke-width:1.0;"/><path d="M141.7656,126.875 Q141.9219,126.6563 142.1094,126.5469 Q142.2969,126.4375 142.5156,126.4375 Q142.8906,126.4375 143.125,126.6953 Q143.3594,126.9531 143.3594,127.5625 L143.3594,129.0156 Q143.3594,129.625 143.125,129.8906 Q142.8906,130.1563 142.5156,130.1563 Q142.1719,130.1563 141.9688,129.9531 Q141.7656,129.7656 141.6563,129.25 Q141.6094,128.8906 141.4219,128.7031 Q141.0938,128.3281 140.4844,128.1094 Q139.875,127.8906 139.25,127.8906 Q138.4844,127.8906 137.8516,128.2188 Q137.2188,128.5469 136.7266,129.2969 Q136.2344,130.0469 136.2344,131.0781 L136.2344,132.1719 Q136.2344,133.4063 137.125,134.2266 Q138.0156,135.0469 139.6094,135.0469 Q140.5469,135.0469 141.2031,134.7969 Q141.5938,134.6406 142.0156,134.2031 Q142.2813,133.9375 142.4297,133.8594 Q142.5781,133.7813 142.7813,133.7813 Q143.1094,133.7813 143.3672,134.0391 Q143.625,134.2969 143.625,134.6406 Q143.625,134.9844 143.2813,135.3906 Q142.7813,135.9688 141.9844,136.2969 Q140.9063,136.75 139.6094,136.75 Q138.0938,136.75 136.8906,136.125 Q135.9063,135.625 135.2188,134.5547 Q134.5313,133.4844 134.5313,132.2031 L134.5313,131.0469 Q134.5313,129.7188 135.1484,128.5703 Q135.7656,127.4219 136.8594,126.8047 Q137.9531,126.1875 139.1875,126.1875 Q139.9219,126.1875 140.5703,126.3516 Q141.2188,126.5156 141.7656,126.875 Z " fill="#000000"/><text fill="#000000" font-family="sans-serif" font-size="12" lengthAdjust="spacingAndGlyphs" textLength="96" x="153" y="135.9102">CommandQueue</text><line style="stroke:#A80036;stroke-width:1.5;" x1="125" x2="251" y1="147" y2="147"/><line style="stroke:#A80036;stroke-width:1.5;" x1="125" x2="251" y1="155" y2="155"/><!--MD5=[175f95e045c1a44aed0b30df3abe0e5c]
class Program--><rect fill="#FEFECE" filter="url(#f1fqqfcb7b1wkx)" height="48" id="Program" style="stroke:#A80036;stroke-width:1.5;" width="80" x="287" y="115"/><ellipse cx="302" cy="131" fill="#ADD1B2" rx="11" ry="11" style="stroke:#A80036;stroke-width:1.0;"/><path d="M304.7656,126.875 Q304.9219,126.6563 305.1094,126.5469 Q305.2969,126.4375 305.5156,126.4375 Q305.8906,126.4375 306.125,126.6953 Q306.3594,126.9531 306.3594,127.5625 L306.3594,129.0156 Q306.3594,129.625 306.125,129.8906 Q305.8906,130.1563 305.5156,130.1563 Q305.1719,130.1563 304.9688,129.9531 Q304.7656,129.7656 304.6563,129.25 Q304.6094,128.8906 304.4219,128.7031 Q304.0938,128.3281 303.4844,128.1094 Q302.875,127.8906 302.25,127.8906 Q301.4844,127.8906 300.8516,128.2188 Q300.2188,128.5469 299.7266,129.2969 Q299.2344,130.0469 299.2344,131.0781 L299.2344,132.1719 Q299.2344,133.4063 300.125,134.2266 Q301.0156,135.0469 302.6094,135.0469 Q303.5469,135.0469 304.2031,134.7969 Q304.5938,134.6406 305.0156,134.2031 Q305.2813,133.9375 305.4297,133.8594 Q305.5781,133.7813 305.7813,133.7813 Q306.1094,133.7813 306.3672,134.0391 Q306.625,134.2969 306.625,134.6406 Q306.625,134.9844 306.2813,135.3906 Q305.7813,135.9688 304.9844,136.2969 Q303.9063,136.75 302.6094,136.75 Q301.0938,136.75 299.8906,136.125 Q298.9063,135.625 298.2188,134.5547 Q297.5313,133.4844 297.5313,132.2031 L297.5313,131.0469 Q297.5313,129.7188 298.1484,128.5703 Q298.7656,127.4219 299.8594,126.8047 Q300.9531,126.1875 302.1875,126.1875 Q302.9219,126.1875 303.5703,126.3516 Q304.2188,126.5156 304.7656,126.875 Z " fill="#000000"/><text fill="#000000" font-family="sans-serif" font-size="12" lengthAdjust="spacingAndGlyphs" textLength="48" x="316" y="135.9102">Program</text><line style="stroke:#A80036;stroke-width:1.5;" x1="288" x2="366" y1="147" y2="147"/><line style="stroke:#A80036;stroke-width:1.5;" x1="288" x2="366" y1="155" y2="155"/><!--MD5=[daeea0df713f5a1e6085e9f07acfb9b8]
class Kernel--><rect fill="#FEFECE" filter="url(#f1fqqfcb7b1wkx)" height="48" id="Kernel" style="stroke:#A80036;stroke-width:1.5;" width="68" x="402" y="115"/><ellipse cx="417" cy="131" fill="#ADD1B2" rx="11" ry="11" style="stroke:#A80036;stroke-width:1.0;"/><path d="M419.7656,126.875 Q419.9219,126.6563 420.1094,126.5469 Q420.2969,126.4375 420.5156,126.4375 Q420.8906,126.4375 421.125,126.6953 Q421.3594,126.9531 421.3594,127.5625 L421.3594,129.0156 Q421.3594,129.625 421.125,129.8906 Q420.8906,130.1563 420.5156,130.1563 Q420.1719,130.1563 419.9688,129.9531 Q419.7656,129.7656 419.6563,129.25 Q419.6094,128.8906 419.4219,128.7031 Q419.0938,128.3281 418.4844,128.1094 Q417.875,127.8906 417.25,127.8906 Q416.4844,127.8906 415.8516,128.2188 Q415.2188,128.5469 414.7266,129.2969 Q414.2344,130.0469 414.2344,131.0781 L414.2344,132.1719 Q414.2344,133.4063 415.125,134.2266 Q416.0156,135.0469 417.6094,135.0469 Q418.5469,135.0469 419.2031,134.7969 Q419.5938,134.6406 420.0156,134.2031 Q420.2813,133.9375 420.4297,133.8594 Q420.5781,133.7813 420.7813,133.7813 Q421.1094,133.7813 421.3672,134.0391 Q421.625,134.2969 421.625,134.6406 Q421.625,134.9844 421.2813,135.3906 Q420.7813,135.9688 419.9844,136.2969 Q418.9063,136.75 417.6094,136.75 Q416.0938,136.75 414.8906,136.125 Q413.9063,135.625 413.2188,134.5547 Q412.5313,133.4844 412.5313,132.2031 L412.5313,131.0469 Q412.5313,129.7188 413.1484,128.5703 Q413.7656,127.4219 414.8594,126.8047 Q415.9531,126.1875 417.1875,126.1875 Q417.9219,126.1875 418.5703,126.3516 Q419.2188,126.5156 419.7656,126.875 Z " fill="#000000"/><text fill="#000000" font-family="sans-serif" font-size="12" lengthAdjust="spacingAndGlyphs" textLength="36" x="431" y="135.9102">Kernel</text><line style="stroke:#A80036;stroke-width:1.5;" x1="403" x2="469" y1="147" y2="147"/><line style="stroke:#A80036;stroke-width:1.5;" x1="403" x2="469" y1="155" y2="155"/><!--MD5=[5a085a4c8838457085fbed9f488cfeb1]
class SubDevice--><rect fill="#FEFECE" filter="url(#f1fqqfcb7b1wkx)" height="48" id="SubDevice" style="stroke:#A80036;stroke-width:1.5;" width="91" x="505.5" y="115"/><ellipse cx="520.5" cy="131" fill="#ADD1B2" rx="11" ry="11" style="stroke:#A80036;stroke-width:1.0;"/><path d="M523.2656,126.875 Q523.4219,126.6563 523.6094,126.5469 Q523.7969,126.4375 524.0156,126.4375 Q524.3906,126.4375 524.625,126.6953 Q524.8594,126.9531 524.8594,127.5625 L524.8594,129.0156 Q524.8594,129.625 524.625,129.8906 Q524.3906,130.1563 524.0156,130.1563 Q523.6719,130.1563 523.4688,129.9531 Q523.2656,129.7656 523.1563,129.25 Q523.1094,128.8906 522.9219,128.7031 Q522.5938,128.3281 521.9844,128.1094 Q521.375,127.8906 520.75,127.8906 Q519.9844,127.8906 519.3516,128.2188 Q518.7188,128.5469 518.2266,129.2969 Q517.7344,130.0469 517.7344,131.0781 L517.7344,132.1719 Q517.7344,133.4063 518.625,134.2266 Q519.5156,135.0469 521.1094,135.0469 Q522.0469,135.0469 522.7031,134.7969 Q523.0938,134.6406 523.5156,134.2031 Q523.7813,133.9375 523.9297,133.8594 Q524.0781,133.7813 524.2813,133.7813 Q524.6094,133.7813 524.8672,134.0391 Q525.125,134.2969 525.125,134.6406 Q525.125,134.9844 524.7813,135.3906 Q524.2813,135.9688 523.4844,136.2969 Q522.4063,136.75 521.1094,136.75 Q519.5938,136.75 518.3906,136.125 Q517.4063,135.625 516.7188,134.5547 Q516.0313,133.4844 516.0313,132.2031 L516.0313,131.0469 Q516.0313,129.7188 516.6484,128.5703 Q517.2656,127.4219 518.3594,126.8047 Q519.4531,126.1875 520.6875,126.1875 Q521.4219,126.1875 522.0703,126.3516 Q522.7188,126.5156 523.2656,126.875 Z " fill="#000000"/><text fill="#000000" font-family="sans-serif" font-size="12" lengthAdjust="spacingAndGlyphs" textLength="59" x="534.5" y="135.9102">SubDevice</text><line style="stroke:#A80036;stroke-width:1.5;" x1="506.5" x2="595.5" y1="147" y2="147"/><line style="stroke:#A80036;stroke-width:1.5;" x1="506.5" x2="595.5" y1="155" y2="155"/><!--MD5=[7de028eb4269b1f6a1a3b34322269b70]
reverse link Context to cl_device_id--><path codeLine="8" d="M277.88,50.16 C233.03,66.8 164.94,92.25 106,115 C100.54,117.11 94.81,119.35 89.15,121.57 " fill="none" id="Context-backto-cl_device_id" style="stroke:#A80036;stroke-width:1.0;"/><polygon fill="#FFFFFF" points="290.16,45.6,283.143,43.938,278.91,49.7759,285.927,51.4379,290.16,45.6" style="stroke:#A80036;stroke-width:1.0;"/><text fill="#000000" font-family="sans-serif" font-size="13" lengthAdjust="spacingAndGlyphs" textLength="20" x="79.4684" y="110.6841">1..*</text><!--MD5=[64d49767c51577c53c2045b7d6ea0a0a]
reverse link cl_device_id to CommandQueue--><path codeLine="9" d="M102.07,139 C109.32,139 116.56,139 123.81,139 " fill="none" id="cl_device_id-backto-CommandQueue" style="stroke:#A80036;stroke-width:1.0;"/><polygon fill="#FFFFFF" points="89.02,139,95.02,143,101.02,139,95.02,135,89.02,139" style="stroke:#A80036;stroke-width:1.0;"/><text fill="#000000" font-family="sans-serif" font-size="13" lengthAdjust="spacingAndGlyphs" textLength="20" x="96.1592" y="135.6882">1..*</text><!--MD5=[58695bd4f72c9dba5e61912a086b19ef]
reverse link Context to CommandQueue--><path codeLine="10" d="M286.31,63.03 C264.66,79.54 238.48,99.5 218.58,114.68 " fill="none" id="Context-backto-CommandQueue" style="stroke:#A80036;stroke-width:1.0;"/><polygon fill="#A80036" points="296.84,55,289.6437,55.4617,287.3021,62.2821,294.4984,61.8203,296.84,55" style="stroke:#A80036;stroke-width:1.0;"/><text fill="#000000" font-family="sans-serif" font-size="13" lengthAdjust="spacingAndGlyphs" textLength="20" x="203.5964" y="104.34">1..*</text><!--MD5=[f385cb0276476e773e02ec29138691f2]
reverse link Context to Program--><path codeLine="12" d="M327,68.34 C327,83.68 327,101.1 327,114.68 " fill="none" id="Context-backto-Program" style="stroke:#A80036;stroke-width:1.0;"/><polygon fill="#A80036" points="327,55,323,61,327,67,331,61,327,55" style="stroke:#A80036;stroke-width:1.0;"/><text fill="#000000" font-family="sans-serif" font-size="13" lengthAdjust="spacingAndGlyphs" textLength="20" x="304.5625" y="104.34">1..*</text><!--MD5=[cdc35776229e961d278ce1aa3cef2c3c]
reverse link Program to Kernel--><path codeLine="13" d="M380.06,139 C387.3,139 394.54,139 401.78,139 " fill="none" id="Program-backto-Kernel" style="stroke:#A80036;stroke-width:1.0;"/><polygon fill="#A80036" points="367.02,139,373.02,143,379.02,139,373.02,135,367.02,139" style="stroke:#A80036;stroke-width:1.0;"/><text fill="#000000" font-family="sans-serif" font-size="13" lengthAdjust="spacingAndGlyphs" textLength="20" x="373.9033" y="135.1014">1..*</text><!--MD5=[39cfa9c45a7b2d8817314e3a153d9b79]
reverse link Context to Kernel--><path codeLine="14" d="M360.08,64.17 C376.82,80.45 396.77,99.85 412.02,114.68 " fill="none" id="Context-backto-Kernel" style="stroke:#A80036;stroke-width:1.0;"/><polygon fill="#A80036" points="350.65,55,352.1684,62.0494,359.2596,63.3591,357.7412,56.3097,350.65,55" style="stroke:#A80036;stroke-width:1.0;"/><text fill="#000000" font-family="sans-serif" font-size="13" lengthAdjust="spacingAndGlyphs" textLength="20" x="383.7374" y="104.34">1..*</text><!--MD5=[ba5fd4c84a27ff9b35bc22e4ba232c38]
reverse link Context to SubDevice--><path codeLine="16" d="M375.94,55.16 C414.48,73.4 467.8,98.63 505.43,116.44 " fill="none" id="Context-backto-SubDevice" style="stroke:#A80036;stroke-width:1.0;"/><polygon fill="#A80036" points="363.99,49.5,367.6991,55.6841,374.834,54.6387,371.1249,48.4547,363.99,49.5" style="stroke:#A80036;stroke-width:1.0;"/><text fill="#000000" font-family="sans-serif" font-size="13" lengthAdjust="spacingAndGlyphs" textLength="20" x="477.6155" y="109.6623">0..*</text><!--MD5=[f3ab354c9ad3340febefe3ac3bea5226]
@startuml

'Copyright (c) 2021 Via Technology Ltd. All Rights Reserved.

' title via::opencl Context objects

object cl_device_id

Context o- - "1..*" cl_device_id
cl_device_id o- "1..*" CommandQueue
Context *- - "1..*" CommandQueue

Context *- - "1..*" Program
Program *- "1..*" Kernel
Context *- - "1..*" Kernel

Context *- - "0..*" SubDevice

@enduml

@startuml



object cl_device_id

Context o- - "1..*" cl_device_id
cl_device_id o- "1..*" CommandQueue
Context *- - "1..*" CommandQueue

Context *- - "1..*" Program
Program *- "1..*" Kernel
Context *- - "1..*" Kernel

Context *- - "0..*" SubDevice

@enduml

PlantUML version 1.2020.26(Mon Dec 21 17:45:07 GMT 2020)
(GPL source distribution)
Java Runtime: Java(TM) SE Runtime Environment
JVM: Java HotSpot(TM) Client VM
Default Encoding: Cp1252
Language: en
Country: GB
--></g></svg>