<?xml version="1.0" encoding="UTF-8" standalone="no"?><svg xmlns="http://www.w3.org/2000/svg" xmlns:xlink="http://www.w3.org/1999/xlink" contentScriptType="application/ecmascript" contentStyleType="text/css" height="177px" preserveAspectRatio="none" style="width:283px;height:177px;" version="1.1" viewBox="0 0 283 177" width="283px" zoomAndPan="magnify"><defs><filter height="300%" id="fxmsuq4diur7d" width="300%" x="-1" y="-1"><feGaussianBlur result="blurOut" stdDeviation="2.0"/><feColorMatrix in="blurOut" result="blurOut2" type="matrix" values="0 0 0 0 0 0 0 0 0 0 0 0 0 0 0 0 0 0 .4 0"/><feOffset dx="4.0" dy="4.0" in="blurOut2" result="blurOut3"/><feBlend in="SourceGraphic" in2="blurOut3" mode="normal"/></filter></defs><g><!--MD5=[9e9737bed61a6b1d6b48b2052db5d4e5]
class Buffer--><rect fill="#FEFECE" filter="url(#fxmsuq4diur7d)" height="48" id="Buffer" style="stroke:#A80036;stroke-width:1.5;" width="64" x="7" y="7"/><ellipse cx="22" cy="23" fill="#ADD1B2" rx="11" ry="11" style="stroke:#A80036;stroke-width:1.0;"/><path d="M24.7656,18.875 Q24.9219,18.6563 25.1094,18.5469 Q25.2969,18.4375 25.5156,18.4375 Q25.8906,18.4375 26.125,18.6953 Q26.3594,18.9531 26.3594,19.5625 L26.3594,21.0156 Q26.3594,21.625 26.125,21.8906 Q25.8906,22.1563 25.5156,22.1563 Q25.1719,22.1563 24.9688,21.9531 Q24.7656,21.7656 24.6563,21.25 Q24.6094,20.8906 24.4219,20.7031 Q24.0938,20.3281 23.4844,20.1094 Q22.875,19.8906 22.25,19.8906 Q21.4844,19.8906 20.8516,20.2188 Q20.2188,20.5469 19.7266,21.2969 Q19.2344,22.0469 19.2344,23.0781 L19.2344,24.1719 Q19.2344,25.4063 20.125,26.2266 Q21.0156,27.0469 22.6094,27.0469 Q23.5469,27.0469 24.2031,26.7969 Q24.5938,26.6406 25.0156,26.2031 Q25.2813,25.9375 25.4297,25.8594 Q25.5781,25.7813 25.7813,25.7813 Q26.1094,25.7813 26.3672,26.0391 Q26.625,26.2969 26.625,26.6406 Q26.625,26.9844 26.2813,27.3906 Q25.7813,27.9688 24.9844,28.2969 Q23.9063,28.75 22.6094,28.75 Q21.0938,28.75 19.8906,28.125 Q18.9063,27.625 18.2188,26.5547 Q17.5313,25.4844 17.5313,24.2031 L17.5313,23.0469 Q17.5313,21.7188 18.1484,20.5703 Q18.7656,19.4219 19.8594,18.8047 Q20.9531,18.1875 22.1875,18.1875 Q22.9219,18.1875 23.5703,18.3516 Q24.2188,18.5156 24.7656,18.875 Z " fill="#000000"/><text fill="#000000" font-family="sans-serif" font-size="12" lengthAdjust="spacingAndGlyphs" textLength="32" x="36" y="27.9102">Buffer</text><line style="stroke:#A80036;stroke-width:1.5;" x1="8" x2="70" y1="39" y2="39"/><line style="stroke:#A80036;stroke-width:1.5;" x1="8" x2="70" y1="47" y2="47"/><!--MD5=[a40b17eea413225aac43454b95ec0b4d]
class Memory--><rect fill="#FEFECE" filter="url(#fxmsuq4diur7d)" height="48" id="Memory" style="stroke:#A80036;stroke-width:1.5;" width="75" x="102.5" y="115"/><ellipse cx="117.5" cy="131" fill="#ADD1B2" rx="11" ry="11" style="stroke:#A80036;stroke-width:1.0;"/><path d="M120.2656,126.875 Q120.4219,126.6563 120.6094,126.5469 Q120.7969,126.4375 121.0156,126.4375 Q121.3906,126.4375 121.625,126.6953 Q121.8594,126.9531 121.8594,127.5625 L121.8594,129.0156 Q121.8594,129.625 121.625,129.8906 Q121.3906,130.1563 121.0156,130.1563 Q120.6719,130.1563 120.4688,129.9531 Q120.2656,129.7656 120.1563,129.25 Q120.1094,128.8906 119.9219,128.7031 Q119.5938,128.3281 118.9844,128.1094 Q118.375,127.8906 117.75,127.8906 Q116.9844,127.8906 116.3516,128.2188 Q115.7188,128.5469 115.2266,129.2969 Q114.7344,130.0469 114.7344,131.0781 L114.7344,132.1719 Q114.7344,133.4063 115.625,134.2266 Q116.5156,135.0469 118.1094,135.0469 Q119.0469,135.0469 119.7031,134.7969 Q120.0938,134.6406 120.5156,134.2031 Q120.7813,133.9375 120.9297,133.8594 Q121.0781,133.7813 121.2813,133.7813 Q121.6094,133.7813 121.8672,134.0391 Q122.125,134.2969 122.125,134.6406 Q122.125,134.9844 121.7813,135.3906 Q121.2813,135.9688 120.4844,136.2969 Q119.4063,136.75 118.1094,136.75 Q116.5938,136.75 115.3906,136.125 Q114.4063,135.625 113.7188,134.5547 Q113.0313,133.4844 113.0313,132.2031 L113.0313,131.0469 Q113.0313,129.7188 113.6484,128.5703 Q114.2656,127.4219 115.3594,126.8047 Q116.4531,126.1875 117.6875,126.1875 Q118.4219,126.1875 119.0703,126.3516 Q119.7188,126.5156 120.2656,126.875 Z " fill="#000000"/><text fill="#000000" font-family="sans-serif" font-size="12" lengthAdjust="spacingAndGlyphs" textLength="43" x="131.5" y="135.9102">Memory</text><line style="stroke:#A80036;stroke-width:1.5;" x1="103.5" x2="176.5" y1="147" y2="147"/><line style="stroke:#A80036;stroke-width:1.5;" x1="103.5" x2="176.5" y1="155" y2="155"/><!--MD5=[964f074a2dd77d134c21b891bb53e381]
class Image--><rect fill="#FEFECE" filter="url(#fxmsuq4diur7d)" height="48" id="Image" style="stroke:#A80036;stroke-width:1.5;" width="67" x="106.5" y="7"/><ellipse cx="121.5" cy="23" fill="#ADD1B2" rx="11" ry="11" style="stroke:#A80036;stroke-width:1.0;"/><path d="M124.2656,18.875 Q124.4219,18.6563 124.6094,18.5469 Q124.7969,18.4375 125.0156,18.4375 Q125.3906,18.4375 125.625,18.6953 Q125.8594,18.9531 125.8594,19.5625 L125.8594,21.0156 Q125.8594,21.625 125.625,21.8906 Q125.3906,22.1563 125.0156,22.1563 Q124.6719,22.1563 124.4688,21.9531 Q124.2656,21.7656 124.1563,21.25 Q124.1094,20.8906 123.9219,20.7031 Q123.5938,20.3281 122.9844,20.1094 Q122.375,19.8906 121.75,19.8906 Q120.9844,19.8906 120.3516,20.2188 Q119.7188,20.5469 119.2266,21.2969 Q118.7344,22.0469 118.7344,23.0781 L118.7344,24.1719 Q118.7344,25.4063 119.625,26.2266 Q120.5156,27.0469 122.1094,27.0469 Q123.0469,27.0469 123.7031,26.7969 Q124.0938,26.6406 124.5156,26.2031 Q124.7813,25.9375 124.9297,25.8594 Q125.0781,25.7813 125.2813,25.7813 Q125.6094,25.7813 125.8672,26.0391 Q126.125,26.2969 126.125,26.6406 Q126.125,26.9844 125.7813,27.3906 Q125.2813,27.9688 124.4844,28.2969 Q123.4063,28.75 122.1094,28.75 Q120.5938,28.75 119.3906,28.125 Q118.4063,27.625 117.7188,26.5547 Q117.0313,25.4844 117.0313,24.2031 L117.0313,23.0469 Q117.0313,21.7188 117.6484,20.5703 Q118.2656,19.4219 119.3594,18.8047 Q120.4531,18.1875 121.6875,18.1875 Q122.4219,18.1875 123.0703,18.3516 Q123.7188,18.5156 124.2656,18.875 Z " fill="#000000"/><text fill="#000000" font-family="sans-serif" font-size="12" lengthAdjust="spacingAndGlyphs" textLength="35" x="135.5" y="27.9102">Image</text><line style="stroke:#A80036;stroke-width:1.5;" x1="107.5" x2="172.5" y1="39" y2="39"/><line style="stroke:#A80036;stroke-width:1.5;" x1="107.5" x2="172.5" y1="47" y2="47"/><!--MD5=[4dfa3bfde5407297cdf87f3e284398fb]
class Pipe--><rect fill="#FEFECE" filter="url(#fxmsuq4diur7d)" height="48" id="Pipe" style="stroke:#A80036;stroke-width:1.5;" width="57" x="208.5" y="7"/><ellipse cx="223.5" cy="23" fill="#ADD1B2" rx="11" ry="11" style="stroke:#A80036;stroke-width:1.0;"/><path d="M226.2656,18.875 Q226.4219,18.6563 226.6094,18.5469 Q226.7969,18.4375 227.0156,18.4375 Q227.3906,18.4375 227.625,18.6953 Q227.8594,18.9531 227.8594,19.5625 L227.8594,21.0156 Q227.8594,21.625 227.625,21.8906 Q227.3906,22.1563 227.0156,22.1563 Q226.6719,22.1563 226.4688,21.9531 Q226.2656,21.7656 226.1563,21.25 Q226.1094,20.8906 225.9219,20.7031 Q225.5938,20.3281 224.9844,20.1094 Q224.375,19.8906 223.75,19.8906 Q222.9844,19.8906 222.3516,20.2188 Q221.7188,20.5469 221.2266,21.2969 Q220.7344,22.0469 220.7344,23.0781 L220.7344,24.1719 Q220.7344,25.4063 221.625,26.2266 Q222.5156,27.0469 224.1094,27.0469 Q225.0469,27.0469 225.7031,26.7969 Q226.0938,26.6406 226.5156,26.2031 Q226.7813,25.9375 226.9297,25.8594 Q227.0781,25.7813 227.2813,25.7813 Q227.6094,25.7813 227.8672,26.0391 Q228.125,26.2969 228.125,26.6406 Q228.125,26.9844 227.7813,27.3906 Q227.2813,27.9688 226.4844,28.2969 Q225.4063,28.75 224.1094,28.75 Q222.5938,28.75 221.3906,28.125 Q220.4063,27.625 219.7188,26.5547 Q219.0313,25.4844 219.0313,24.2031 L219.0313,23.0469 Q219.0313,21.7188 219.6484,20.5703 Q220.2656,19.4219 221.3594,18.8047 Q222.4531,18.1875 223.6875,18.1875 Q224.4219,18.1875 225.0703,18.3516 Q225.7188,18.5156 226.2656,18.875 Z " fill="#000000"/><text fill="#000000" font-family="sans-serif" font-size="12" lengthAdjust="spacingAndGlyphs" textLength="25" x="237.5" y="27.9102">Pipe</text><line style="stroke:#A80036;stroke-width:1.5;" x1="209.5" x2="264.5" y1="39" y2="39"/><line style="stroke:#A80036;stroke-width:1.5;" x1="209.5" x2="264.5" y1="47" y2="47"/><!--MD5=[ee004750a09daee7b8886fa6abb8ade9]
class SVM--><rect fill="#FEFECE" filter="url(#fxmsuq4diur7d)" height="48" id="SVM" style="stroke:#A80036;stroke-width:1.5;" width="56" x="213" y="115"/><ellipse cx="228" cy="131" fill="#ADD1B2" rx="11" ry="11" style="stroke:#A80036;stroke-width:1.0;"/><path d="M230.7656,126.875 Q230.9219,126.6563 231.1094,126.5469 Q231.2969,126.4375 231.5156,126.4375 Q231.8906,126.4375 232.125,126.6953 Q232.3594,126.9531 232.3594,127.5625 L232.3594,129.0156 Q232.3594,129.625 232.125,129.8906 Q231.8906,130.1563 231.5156,130.1563 Q231.1719,130.1563 230.9688,129.9531 Q230.7656,129.7656 230.6563,129.25 Q230.6094,128.8906 230.4219,128.7031 Q230.0938,128.3281 229.4844,128.1094 Q228.875,127.8906 228.25,127.8906 Q227.4844,127.8906 226.8516,128.2188 Q226.2188,128.5469 225.7266,129.2969 Q225.2344,130.0469 225.2344,131.0781 L225.2344,132.1719 Q225.2344,133.4063 226.125,134.2266 Q227.0156,135.0469 228.6094,135.0469 Q229.5469,135.0469 230.2031,134.7969 Q230.5938,134.6406 231.0156,134.2031 Q231.2813,133.9375 231.4297,133.8594 Q231.5781,133.7813 231.7813,133.7813 Q232.1094,133.7813 232.3672,134.0391 Q232.625,134.2969 232.625,134.6406 Q232.625,134.9844 232.2813,135.3906 Q231.7813,135.9688 230.9844,136.2969 Q229.9063,136.75 228.6094,136.75 Q227.0938,136.75 225.8906,136.125 Q224.9063,135.625 224.2188,134.5547 Q223.5313,133.4844 223.5313,132.2031 L223.5313,131.0469 Q223.5313,129.7188 224.1484,128.5703 Q224.7656,127.4219 225.8594,126.8047 Q226.9531,126.1875 228.1875,126.1875 Q228.9219,126.1875 229.5703,126.3516 Q230.2188,126.5156 230.7656,126.875 Z " fill="#000000"/><text fill="#000000" font-family="sans-serif" font-size="12" lengthAdjust="spacingAndGlyphs" textLength="24" x="242" y="135.9102">SVM</text><line style="stroke:#A80036;stroke-width:1.5;" x1="214" x2="268" y1="147" y2="147"/><line style="stroke:#A80036;stroke-width:1.5;" x1="214" x2="268" y1="155" y2="155"/><!--MD5=[92f76e6e7e3ebbea79efd1107ffa7361]
link Buffer to Memory--><path codeLine="6" d="M60.92,55 C73.4,68.11 89.37,84.86 103.68,99.88 " fill="none" id="Buffer-to-Memory" style="stroke:#A80036;stroke-width:1.0;"/><polygon fill="none" points="109.05,95.37,117.78,114.68,98.91,105.03,109.05,95.37" style="stroke:#A80036;stroke-width:1.0;"/><!--MD5=[b618517008d869bda4758aae16ba04c8]
link Image to Memory--><path codeLine="8" d="M140,55 C140,66.59 140,81.03 140,94.6 " fill="none" id="Image-to-Memory" style="stroke:#A80036;stroke-width:1.0;"/><polygon fill="none" points="147,94.68,140,114.68,133,94.68,147,94.68" style="stroke:#A80036;stroke-width:1.0;"/><!--MD5=[9a58687ea7b2c26dca099038837b60c8]
link Pipe to Memory--><path codeLine="9" d="M215.95,55 C203.96,68.11 188.63,84.86 174.88,99.88 " fill="none" id="Pipe-to-Memory" style="stroke:#A80036;stroke-width:1.0;"/><polygon fill="none" points="180.01,104.65,161.34,114.68,169.68,95.2,180.01,104.65" style="stroke:#A80036;stroke-width:1.0;"/><!--MD5=[67157ba05333537e883002c5109f808a]
reverse link Memory to SVM--><path codeLine="10" d="M191.01,139 C198.3,139 205.59,139 212.89,139 " fill="none" id="Memory-backto-SVM" style="stroke:#A80036;stroke-width:1.0;"/><polygon fill="#FFFFFF" points="177.88,139,183.8844,142.9934,189.88,138.9868,183.8756,134.9934,177.88,139" style="stroke:#A80036;stroke-width:1.0;"/><!--MD5=[3cdd10b2a878239e1bf84a1f31597818]
@startuml

'Copyright (c) 2021 Via Technology Ltd. All Rights Reserved.

' title via::opencl Memory classes

Buffer - -|> Memory
' Sampler - -o Image
Image - -|> Memory
Pipe - -|> Memory
Memory o- SVM

@enduml

@startuml



Buffer - -|> Memory
Image - -|> Memory
Pipe - -|> Memory
Memory o- SVM

@enduml

PlantUML version 1.2020.26(Mon Dec 21 17:45:07 GMT 2020)
(GPL source distribution)
Java Runtime: Java(TM) SE Runtime Environment
JVM: Java HotSpot(TM) Client VM
Default Encoding: Cp1252
Language: en
Country: GB
--></g></svg>