<?xml version="1.0" encoding="UTF-8" standalone="no"?><svg xmlns="http://www.w3.org/2000/svg" xmlns:xlink="http://www.w3.org/1999/xlink" contentScriptType="application/ecmascript" contentStyleType="text/css" height="1144px" preserveAspectRatio="none" style="width:993px;height:1144px;" version="1.1" viewBox="0 0 993 1144" width="993px" zoomAndPan="magnify"><defs><filter height="300%" id="f1shvh2rnyo8gs" width="300%" x="-1" y="-1"><feGaussianBlur result="blurOut" stdDeviation="2.0"/><feColorMatrix in="blurOut" result="blurOut2" type="matrix" values="0 0 0 0 0 0 0 0 0 0 0 0 0 0 0 0 0 0 .4 0"/><feOffset dx="4.0" dy="4.0" in="blurOut2" result="blurOut3"/><feBlend in="SourceGraphic" in2="blurOut3" mode="normal"/></filter></defs><g><rect fill="#FFFFFF" filter="url(#f1shvh2rnyo8gs)" height="139.7578" style="stroke:#000000;stroke-width:2.0;" width="386" x="20" y="106.6094"/><rect fill="#FFFFFF" filter="url(#f1shvh2rnyo8gs)" height="337.2188" style="stroke:#000000;stroke-width:2.0;" width="949" x="20" y="260.3672"/><rect fill="#FFFFFF" filter="url(#f1shvh2rnyo8gs)" height="202.4609" style="stroke:#000000;stroke-width:2.0;" width="969" x="10" y="611.5859"/><rect fill="#FFFFFF" filter="url(#f1shvh2rnyo8gs)" height="139.7578" style="stroke:#000000;stroke-width:2.0;" width="949" x="20" y="667.2891"/><rect fill="#FFFFFF" filter="url(#f1shvh2rnyo8gs)" height="213.4609" style="stroke:#000000;stroke-width:2.0;" width="949" x="20" y="828.0469"/><line style="stroke:#A80036;stroke-width:1.0;stroke-dasharray:5.0,5.0;" x1="96" x2="96" y1="89.6094" y2="1058.5078"/><line style="stroke:#A80036;stroke-width:1.0;stroke-dasharray:5.0,5.0;" x1="277" x2="277" y1="89.6094" y2="1058.5078"/><line style="stroke:#A80036;stroke-width:1.0;stroke-dasharray:5.0,5.0;" x1="360" x2="360" y1="89.6094" y2="1058.5078"/><line style="stroke:#A80036;stroke-width:1.0;stroke-dasharray:5.0,5.0;" x1="476" x2="476" y1="89.6094" y2="1058.5078"/><line style="stroke:#A80036;stroke-width:1.0;stroke-dasharray:5.0,5.0;" x1="652" x2="652" y1="89.6094" y2="1058.5078"/><line style="stroke:#A80036;stroke-width:1.0;stroke-dasharray:5.0,5.0;" x1="761" x2="761" y1="89.6094" y2="1058.5078"/><line style="stroke:#A80036;stroke-width:1.0;stroke-dasharray:5.0,5.0;" x1="842" x2="842" y1="89.6094" y2="1058.5078"/><line style="stroke:#A80036;stroke-width:1.0;stroke-dasharray:5.0,5.0;" x1="923" x2="923" y1="89.6094" y2="1058.5078"/><text fill="#000000" font-family="sans-serif" font-size="14" lengthAdjust="spacingAndGlyphs" textLength="126" x="30" y="86.5332">OpenCL Application</text><ellipse cx="96" cy="15" fill="#FEFECE" filter="url(#f1shvh2rnyo8gs)" rx="8" ry="8" style="stroke:#A80036;stroke-width:2.0;"/><path d="M96,23 L96,50 M83,31 L109,31 M96,50 L83,65 M96,50 L109,65 " fill="none" filter="url(#f1shvh2rnyo8gs)" style="stroke:#A80036;stroke-width:2.0;"/><text fill="#000000" font-family="sans-serif" font-size="14" lengthAdjust="spacingAndGlyphs" textLength="126" x="30" y="1072.041">OpenCL Application</text><ellipse cx="96" cy="1085.1172" fill="#FEFECE" filter="url(#f1shvh2rnyo8gs)" rx="8" ry="8" style="stroke:#A80036;stroke-width:2.0;"/><path d="M96,1093.1172 L96,1120.1172 M83,1101.1172 L109,1101.1172 M96,1120.1172 L83,1135.1172 M96,1120.1172 L109,1135.1172 " fill="none" filter="url(#f1shvh2rnyo8gs)" style="stroke:#A80036;stroke-width:2.0;"/><rect fill="#FEFECE" filter="url(#f1shvh2rnyo8gs)" height="49.2188" style="stroke:#A80036;stroke-width:1.5;" width="72" x="239" y="35.3906"/><text fill="#000000" font-family="sans-serif" font-size="14" lengthAdjust="spacingAndGlyphs" textLength="53" x="248.5" y="56.9238">OpenCL</text><text fill="#000000" font-family="sans-serif" font-size="14" lengthAdjust="spacingAndGlyphs" textLength="58" x="246" y="74.5332">platforms</text><rect fill="#FEFECE" filter="url(#f1shvh2rnyo8gs)" height="49.2188" style="stroke:#A80036;stroke-width:1.5;" width="72" x="239" y="1057.5078"/><text fill="#000000" font-family="sans-serif" font-size="14" lengthAdjust="spacingAndGlyphs" textLength="53" x="248.5" y="1079.041">OpenCL</text><text fill="#000000" font-family="sans-serif" font-size="14" lengthAdjust="spacingAndGlyphs" textLength="58" x="246" y="1096.6504">platforms</text><rect fill="#FEFECE" filter="url(#f1shvh2rnyo8gs)" height="49.2188" style="stroke:#A80036;stroke-width:1.5;" width="67" x="325" y="35.3906"/><text fill="#000000" font-family="sans-serif" font-size="14" lengthAdjust="spacingAndGlyphs" textLength="53" x="332" y="56.9238">OpenCL</text><text fill="#000000" font-family="sans-serif" font-size="14" lengthAdjust="spacingAndGlyphs" textLength="48" x="334.5" y="74.5332">devices</text><rect fill="#FEFECE" filter="url(#f1shvh2rnyo8gs)" height="49.2188" style="stroke:#A80036;stroke-width:1.5;" width="67" x="325" y="1057.5078"/><text fill="#000000" font-family="sans-serif" font-size="14" lengthAdjust="spacingAndGlyphs" textLength="53" x="332" y="1079.041">OpenCL</text><text fill="#000000" font-family="sans-serif" font-size="14" lengthAdjust="spacingAndGlyphs" textLength="48" x="334.5" y="1096.6504">devices</text><rect fill="#FEFECE" filter="url(#f1shvh2rnyo8gs)" height="49.2188" style="stroke:#A80036;stroke-width:1.5;" width="67" x="441" y="35.3906"/><text fill="#000000" font-family="sans-serif" font-size="14" lengthAdjust="spacingAndGlyphs" textLength="53" x="448" y="56.9238">OpenCL</text><text fill="#000000" font-family="sans-serif" font-size="14" lengthAdjust="spacingAndGlyphs" textLength="48" x="450.5" y="74.5332">Context</text><rect fill="#FEFECE" filter="url(#f1shvh2rnyo8gs)" height="49.2188" style="stroke:#A80036;stroke-width:1.5;" width="67" x="441" y="1057.5078"/><text fill="#000000" font-family="sans-serif" font-size="14" lengthAdjust="spacingAndGlyphs" textLength="53" x="448" y="1079.041">OpenCL</text><text fill="#000000" font-family="sans-serif" font-size="14" lengthAdjust="spacingAndGlyphs" textLength="48" x="450.5" y="1096.6504">Context</text><rect fill="#FEFECE" filter="url(#f1shvh2rnyo8gs)" height="49.2188" style="stroke:#A80036;stroke-width:1.5;" width="121" x="590" y="35.3906"/><text fill="#000000" font-family="sans-serif" font-size="14" lengthAdjust="spacingAndGlyphs" textLength="53" x="624" y="56.9238">OpenCL</text><text fill="#000000" font-family="sans-serif" font-size="14" lengthAdjust="spacingAndGlyphs" textLength="107" x="597" y="74.5332">CommandQueue</text><rect fill="#FEFECE" filter="url(#f1shvh2rnyo8gs)" height="49.2188" style="stroke:#A80036;stroke-width:1.5;" width="121" x="590" y="1057.5078"/><text fill="#000000" font-family="sans-serif" font-size="14" lengthAdjust="spacingAndGlyphs" textLength="53" x="624" y="1079.041">OpenCL</text><text fill="#000000" font-family="sans-serif" font-size="14" lengthAdjust="spacingAndGlyphs" textLength="107" x="597" y="1096.6504">CommandQueue</text><rect fill="#FEFECE" filter="url(#f1shvh2rnyo8gs)" height="49.2188" style="stroke:#A80036;stroke-width:1.5;" width="68" x="725" y="35.3906"/><text fill="#000000" font-family="sans-serif" font-size="14" lengthAdjust="spacingAndGlyphs" textLength="53" x="732.5" y="56.9238">OpenCL</text><text fill="#000000" font-family="sans-serif" font-size="14" lengthAdjust="spacingAndGlyphs" textLength="54" x="732" y="74.5332">Program</text><rect fill="#FEFECE" filter="url(#f1shvh2rnyo8gs)" height="49.2188" style="stroke:#A80036;stroke-width:1.5;" width="68" x="725" y="1057.5078"/><text fill="#000000" font-family="sans-serif" font-size="14" lengthAdjust="spacingAndGlyphs" textLength="53" x="732.5" y="1079.041">OpenCL</text><text fill="#000000" font-family="sans-serif" font-size="14" lengthAdjust="spacingAndGlyphs" textLength="54" x="732" y="1096.6504">Program</text><rect fill="#FEFECE" filter="url(#f1shvh2rnyo8gs)" height="49.2188" style="stroke:#A80036;stroke-width:1.5;" width="67" x="807" y="35.3906"/><text fill="#000000" font-family="sans-serif" font-size="14" lengthAdjust="spacingAndGlyphs" textLength="53" x="814" y="56.9238">OpenCL</text><text fill="#000000" font-family="sans-serif" font-size="14" lengthAdjust="spacingAndGlyphs" textLength="41" x="820" y="74.5332">Kernel</text><rect fill="#FEFECE" filter="url(#f1shvh2rnyo8gs)" height="49.2188" style="stroke:#A80036;stroke-width:1.5;" width="67" x="807" y="1057.5078"/><text fill="#000000" font-family="sans-serif" font-size="14" lengthAdjust="spacingAndGlyphs" textLength="53" x="814" y="1079.041">OpenCL</text><text fill="#000000" font-family="sans-serif" font-size="14" lengthAdjust="spacingAndGlyphs" textLength="41" x="820" y="1096.6504">Kernel</text><rect fill="#FEFECE" filter="url(#f1shvh2rnyo8gs)" height="49.2188" style="stroke:#A80036;stroke-width:1.5;" width="67" x="888" y="35.3906"/><text fill="#000000" font-family="sans-serif" font-size="14" lengthAdjust="spacingAndGlyphs" textLength="53" x="895" y="56.9238">OpenCL</text><text fill="#000000" font-family="sans-serif" font-size="14" lengthAdjust="spacingAndGlyphs" textLength="50" x="896.5" y="74.5332">Memory</text><rect fill="#FEFECE" filter="url(#f1shvh2rnyo8gs)" height="49.2188" style="stroke:#A80036;stroke-width:1.5;" width="67" x="888" y="1057.5078"/><text fill="#000000" font-family="sans-serif" font-size="14" lengthAdjust="spacingAndGlyphs" textLength="53" x="895" y="1079.041">OpenCL</text><text fill="#000000" font-family="sans-serif" font-size="14" lengthAdjust="spacingAndGlyphs" textLength="50" x="896.5" y="1096.6504">Memory</text><path d="M20,106.6094 L103,106.6094 L103,114.6094 L93,124.6094 L20,124.6094 L20,106.6094 " fill="#EEEEEE" style="stroke:#000000;stroke-width:1.0;"/><rect fill="none" height="139.7578" style="stroke:#000000;stroke-width:2.0;" width="386" x="20" y="106.6094"/><text fill="#000000" font-family="sans-serif" font-size="13" font-weight="bold" lengthAdjust="spacingAndGlyphs" textLength="38" x="35" y="121.1045">Query</text><polygon fill="#A80036" points="265,143.3125,275,147.3125,265,151.3125,269,147.3125" style="stroke:#A80036;stroke-width:1.0;"/><line style="stroke:#A80036;stroke-width:1.0;" x1="96" x2="271" y1="147.3125" y2="147.3125"/><text fill="#000000" font-family="sans-serif" font-size="13" lengthAdjust="spacingAndGlyphs" textLength="147" x="103" y="142.4561">Query OpenCL platforms.</text><polygon fill="#A80036" points="107,173.6641,97,177.6641,107,181.6641,103,177.6641" style="stroke:#A80036;stroke-width:1.0;"/><line style="stroke:#A80036;stroke-width:1.0;" x1="101" x2="276" y1="177.6641" y2="177.6641"/><text fill="#000000" font-family="sans-serif" font-size="13" lengthAdjust="spacingAndGlyphs" textLength="157" x="113" y="172.8076">available OpenCL platforms</text><polygon fill="#A80036" points="348.5,204.0156,358.5,208.0156,348.5,212.0156,352.5,208.0156" style="stroke:#A80036;stroke-width:1.0;"/><line style="stroke:#A80036;stroke-width:1.0;" x1="96" x2="354.5" y1="208.0156" y2="208.0156"/><text fill="#000000" font-family="sans-serif" font-size="13" lengthAdjust="spacingAndGlyphs" textLength="137" x="103" y="203.1592">Query OpenCL devices.</text><polygon fill="#A80036" points="107,234.3672,97,238.3672,107,242.3672,103,238.3672" style="stroke:#A80036;stroke-width:1.0;"/><line style="stroke:#A80036;stroke-width:1.0;" x1="101" x2="359.5" y1="238.3672" y2="238.3672"/><text fill="#000000" font-family="sans-serif" font-size="13" lengthAdjust="spacingAndGlyphs" textLength="147" x="113" y="233.5107">available OpenCL devices</text><path d="M20,260.3672 L143,260.3672 L143,268.3672 L133,278.3672 L20,278.3672 L20,260.3672 " fill="#EEEEEE" style="stroke:#000000;stroke-width:1.0;"/><rect fill="none" height="337.2188" style="stroke:#000000;stroke-width:2.0;" width="949" x="20" y="260.3672"/><text fill="#000000" font-family="sans-serif" font-size="13" font-weight="bold" lengthAdjust="spacingAndGlyphs" textLength="78" x="35" y="274.8623">Initialisation</text><line style="stroke:#A80036;stroke-width:1.0;" x1="96" x2="138" y1="317.4219" y2="317.4219"/><line style="stroke:#A80036;stroke-width:1.0;" x1="138" x2="138" y1="317.4219" y2="330.4219"/><line style="stroke:#A80036;stroke-width:1.0;" x1="97" x2="138" y1="330.4219" y2="330.4219"/><polygon fill="#A80036" points="107,326.4219,97,330.4219,107,334.4219,103,330.4219" style="stroke:#A80036;stroke-width:1.0;"/><text fill="#000000" font-family="sans-serif" font-size="13" lengthAdjust="spacingAndGlyphs" textLength="145" x="103" y="296.2139">Choose most appropriate</text><text fill="#000000" font-family="sans-serif" font-size="13" lengthAdjust="spacingAndGlyphs" textLength="126" x="103" y="312.5654">platform and device(s)</text><polygon fill="#A80036" points="464.5,356.7734,474.5,360.7734,464.5,364.7734,468.5,360.7734" style="stroke:#A80036;stroke-width:1.0;"/><line style="stroke:#A80036;stroke-width:1.0;" x1="96" x2="470.5" y1="360.7734" y2="360.7734"/><text fill="#000000" font-family="sans-serif" font-size="13" lengthAdjust="spacingAndGlyphs" textLength="304" x="103" y="355.917">Construct OpenCL Context for platform and device(s)</text><polygon fill="#A80036" points="464.5,387.125,474.5,391.125,464.5,395.125,468.5,391.125" style="stroke:#A80036;stroke-width:1.0;"/><line style="stroke:#A80036;stroke-width:1.0;" x1="360.5" x2="470.5" y1="391.125" y2="391.125"/><text fill="#000000" font-family="sans-serif" font-size="13" lengthAdjust="spacingAndGlyphs" textLength="92" x="367.5" y="386.2686">Context devices</text><polygon fill="#A80036" points="640.5,433.8281,650.5,437.8281,640.5,441.8281,644.5,437.8281" style="stroke:#A80036;stroke-width:1.0;"/><line style="stroke:#A80036;stroke-width:1.0;" x1="476.5" x2="646.5" y1="437.8281" y2="437.8281"/><text fill="#000000" font-family="sans-serif" font-size="13" lengthAdjust="spacingAndGlyphs" textLength="78" x="483.5" y="416.6201">Create device</text><text fill="#000000" font-family="sans-serif" font-size="13" lengthAdjust="spacingAndGlyphs" textLength="114" x="483.5" y="432.9717">command_queue(s)</text><polygon fill="#A80036" points="464.5,464.1797,474.5,468.1797,464.5,472.1797,468.5,468.1797" style="stroke:#A80036;stroke-width:1.0;"/><line style="stroke:#A80036;stroke-width:1.0;" x1="96" x2="470.5" y1="468.1797" y2="468.1797"/><text fill="#000000" font-family="sans-serif" font-size="13" lengthAdjust="spacingAndGlyphs" textLength="314" x="103" y="463.3232">Construct and build programs: source, binary and/or IL</text><polygon fill="#A80036" points="749,494.5313,759,498.5313,749,502.5313,753,498.5313" style="stroke:#A80036;stroke-width:1.0;"/><line style="stroke:#A80036;stroke-width:1.0;" x1="476.5" x2="755" y1="498.5313" y2="498.5313"/><text fill="#000000" font-family="sans-serif" font-size="13" lengthAdjust="spacingAndGlyphs" textLength="80" x="483.5" y="493.6748">Build program</text><polygon fill="#A80036" points="830.5,524.8828,840.5,528.8828,830.5,532.8828,834.5,528.8828" style="stroke:#A80036;stroke-width:1.0;"/><line style="stroke:#A80036;stroke-width:1.0;" x1="476.5" x2="836.5" y1="528.8828" y2="528.8828"/><text fill="#000000" font-family="sans-serif" font-size="13" lengthAdjust="spacingAndGlyphs" textLength="171" x="483.5" y="524.0264">Construct kernels for program</text><polygon fill="#A80036" points="464.5,555.2344,474.5,559.2344,464.5,563.2344,468.5,559.2344" style="stroke:#A80036;stroke-width:1.0;"/><line style="stroke:#A80036;stroke-width:1.0;" x1="96" x2="470.5" y1="559.2344" y2="559.2344"/><text fill="#000000" font-family="sans-serif" font-size="13" lengthAdjust="spacingAndGlyphs" textLength="140" x="103" y="554.3779">Create OpenCL memory</text><polygon fill="#A80036" points="911.5,585.5859,921.5,589.5859,911.5,593.5859,915.5,589.5859" style="stroke:#A80036;stroke-width:1.0;"/><line style="stroke:#A80036;stroke-width:1.0;" x1="476.5" x2="917.5" y1="589.5859" y2="589.5859"/><text fill="#000000" font-family="sans-serif" font-size="13" lengthAdjust="spacingAndGlyphs" textLength="295" x="483.5" y="584.7295">Create: buffers, images, samplers, pipes, svm, etc.</text><path d="M10,611.5859 L145,611.5859 L145,619.5859 L135,629.5859 L10,629.5859 L10,611.5859 " fill="#EEEEEE" style="stroke:#000000;stroke-width:1.0;"/><rect fill="none" height="202.4609" style="stroke:#000000;stroke-width:2.0;" width="969" x="10" y="611.5859"/><text fill="#000000" font-family="sans-serif" font-size="13" font-weight="bold" lengthAdjust="spacingAndGlyphs" textLength="90" x="25" y="626.0811">Compute Data</text><polygon fill="#A80036" points="464.5,648.2891,474.5,652.2891,464.5,656.2891,468.5,652.2891" style="stroke:#A80036;stroke-width:1.0;"/><line style="stroke:#A80036;stroke-width:1.0;" x1="96" x2="470.5" y1="652.2891" y2="652.2891"/><text fill="#000000" font-family="sans-serif" font-size="13" lengthAdjust="spacingAndGlyphs" textLength="72" x="103" y="647.4326">get kernel(s)</text><path d="M20,667.2891 L93,667.2891 L93,675.2891 L83,685.2891 L20,685.2891 L20,667.2891 " fill="#EEEEEE" style="stroke:#000000;stroke-width:1.0;"/><rect fill="none" height="139.7578" style="stroke:#000000;stroke-width:2.0;" width="949" x="20" y="667.2891"/><text fill="#000000" font-family="sans-serif" font-size="13" font-weight="bold" lengthAdjust="spacingAndGlyphs" textLength="28" x="35" y="681.7842">loop</text><polygon fill="#A80036" points="911.5,703.9922,921.5,707.9922,911.5,711.9922,915.5,707.9922" style="stroke:#A80036;stroke-width:1.0;"/><line style="stroke:#A80036;stroke-width:1.0;" x1="96" x2="917.5" y1="707.9922" y2="707.9922"/><text fill="#000000" font-family="sans-serif" font-size="13" lengthAdjust="spacingAndGlyphs" textLength="209" x="103" y="703.1357">Write input data to OpenCL memory</text><polygon fill="#A80036" points="640.5,734.3438,650.5,738.3438,640.5,742.3438,644.5,738.3438" style="stroke:#A80036;stroke-width:1.0;"/><line style="stroke:#A80036;stroke-width:1.0;" x1="96" x2="646.5" y1="738.3438" y2="738.3438"/><text fill="#000000" font-family="sans-serif" font-size="13" lengthAdjust="spacingAndGlyphs" textLength="100" x="103" y="733.4873">execute kernel(s)</text><polygon fill="#A80036" points="107,764.6953,97,768.6953,107,772.6953,103,768.6953" style="stroke:#A80036;stroke-width:1.0;"/><line style="stroke:#A80036;stroke-width:1.0;" x1="101" x2="922.5" y1="768.6953" y2="768.6953"/><text fill="#000000" font-family="sans-serif" font-size="13" lengthAdjust="spacingAndGlyphs" textLength="230" x="113" y="763.8389">Read output data from OpenCL memory</text><polygon fill="#A80036" points="107,795.0469,97,799.0469,107,803.0469,103,799.0469" style="stroke:#A80036;stroke-width:1.0;"/><line style="stroke:#A80036;stroke-width:1.0;" x1="101" x2="651.5" y1="799.0469" y2="799.0469"/><text fill="#000000" font-family="sans-serif" font-size="13" lengthAdjust="spacingAndGlyphs" textLength="184" x="113" y="794.1904">wait for events or queue finished</text><path d="M20,828.0469 L123,828.0469 L123,836.0469 L113,846.0469 L20,846.0469 L20,828.0469 " fill="#EEEEEE" style="stroke:#000000;stroke-width:1.0;"/><rect fill="none" height="213.4609" style="stroke:#000000;stroke-width:2.0;" width="949" x="20" y="828.0469"/><text fill="#000000" font-family="sans-serif" font-size="13" font-weight="bold" lengthAdjust="spacingAndGlyphs" textLength="58" x="35" y="842.542">Clean Up</text><polygon fill="#A80036" points="464.5,864.75,474.5,868.75,464.5,872.75,468.5,868.75" style="stroke:#A80036;stroke-width:1.0;"/><line style="stroke:#A80036;stroke-width:1.0;" x1="96" x2="470.5" y1="868.75" y2="868.75"/><text fill="#000000" font-family="sans-serif" font-size="13" lengthAdjust="spacingAndGlyphs" textLength="72" x="103" y="863.8936">drop context</text><polygon fill="#A80036" points="911.5,895.1016,921.5,899.1016,911.5,903.1016,915.5,899.1016" style="stroke:#A80036;stroke-width:1.0;"/><line style="stroke:#A80036;stroke-width:1.0;" x1="476.5" x2="917.5" y1="899.1016" y2="899.1016"/><text fill="#000000" font-family="sans-serif" font-size="13" lengthAdjust="spacingAndGlyphs" textLength="299" x="483.5" y="894.2451">release: buffers, images, samplers, pipes, svm, etc.</text><polygon fill="#A80036" points="830.5,925.4531,840.5,929.4531,830.5,933.4531,834.5,929.4531" style="stroke:#A80036;stroke-width:1.0;"/><line style="stroke:#A80036;stroke-width:1.0;" x1="476.5" x2="836.5" y1="929.4531" y2="929.4531"/><text fill="#000000" font-family="sans-serif" font-size="13" lengthAdjust="spacingAndGlyphs" textLength="88" x="483.5" y="924.5967">release kernels</text><polygon fill="#A80036" points="749,955.8047,759,959.8047,749,963.8047,753,959.8047" style="stroke:#A80036;stroke-width:1.0;"/><line style="stroke:#A80036;stroke-width:1.0;" x1="476.5" x2="755" y1="959.8047" y2="959.8047"/><text fill="#000000" font-family="sans-serif" font-size="13" lengthAdjust="spacingAndGlyphs" textLength="100" x="483.5" y="954.9482">release programs</text><polygon fill="#A80036" points="640.5,986.1563,650.5,990.1563,640.5,994.1563,644.5,990.1563" style="stroke:#A80036;stroke-width:1.0;"/><line style="stroke:#A80036;stroke-width:1.0;" x1="476.5" x2="646.5" y1="990.1563" y2="990.1563"/><text fill="#000000" font-family="sans-serif" font-size="13" lengthAdjust="spacingAndGlyphs" textLength="152" x="483.5" y="985.2998">release command_queues</text><line style="stroke:#A80036;stroke-width:1.0;" x1="476.5" x2="518.5" y1="1020.5078" y2="1020.5078"/><line style="stroke:#A80036;stroke-width:1.0;" x1="518.5" x2="518.5" y1="1020.5078" y2="1033.5078"/><line style="stroke:#A80036;stroke-width:1.0;" x1="477.5" x2="518.5" y1="1033.5078" y2="1033.5078"/><polygon fill="#A80036" points="487.5,1029.5078,477.5,1033.5078,487.5,1037.5078,483.5,1033.5078" style="stroke:#A80036;stroke-width:1.0;"/><text fill="#000000" font-family="sans-serif" font-size="13" lengthAdjust="spacingAndGlyphs" textLength="89" x="483.5" y="1015.6514">release context</text><!--MD5=[baaf9893ec40c0d76c34136af22d3d00]
@startuml

'Copyright (c) 2021 Via Technology Ltd. All Rights Reserved.

'title OpenCL Application Sequence

actor "OpenCL Application" as user

participant "OpenCL\nplatforms" as platforms

participant "OpenCL\ndevices" as devices

participant "OpenCL\nContext" as opencl_context

participant "OpenCL\nCommandQueue" as opencl_queue

participant "OpenCL\nProgram" as opencl_program

participant "OpenCL\nKernel" as opencl_kernel

participant "OpenCL\nMemory" as opencl_memory

group Query
  user -> platforms : Query OpenCL platforms.
  user <- platforms : available OpenCL platforms

  user -> devices : Query OpenCL devices.
  user <- devices : available OpenCL devices
end

group Initialisation
  user -> user : Choose most appropriate\nplatform and device(s)

  user -> opencl_context : Construct OpenCL Context for platform and device(s)

  devices -> opencl_context : Context devices

  opencl_context -> opencl_queue : Create device\ncommand_queue(s)

  user -> opencl_context : Construct and build programs: source, binary and/or IL
  opencl_context -> opencl_program : Build program
  opencl_context -> opencl_kernel : Construct kernels for program

  user -> opencl_context : Create OpenCL memory
  opencl_context -> opencl_memory : Create: buffers, images, samplers, pipes, svm, etc.
end

group Compute Data
  user -> opencl_context : get kernel(s)

  group loop
    user -> opencl_memory : Write input data to OpenCL memory
    user -> opencl_queue : execute kernel(s)
    user <- opencl_memory : Read output data from OpenCL memory
    user <- opencl_queue : wait for events or queue finished
  end
end

group Clean Up
  user -> opencl_context : drop context

  opencl_context -> opencl_memory : release: buffers, images, samplers, pipes, svm, etc.
  opencl_context -> opencl_kernel : release kernels
  opencl_context -> opencl_program : release programs
  opencl_context -> opencl_queue : release command_queues
  opencl_context -> opencl_context : release context
end

@enduml

@startuml



actor "OpenCL Application" as user

participant "OpenCL\nplatforms" as platforms

participant "OpenCL\ndevices" as devices

participant "OpenCL\nContext" as opencl_context

participant "OpenCL\nCommandQueue" as opencl_queue

participant "OpenCL\nProgram" as opencl_program

participant "OpenCL\nKernel" as opencl_kernel

participant "OpenCL\nMemory" as opencl_memory

group Query
  user -> platforms : Query OpenCL platforms.
  user <- platforms : available OpenCL platforms

  user -> devices : Query OpenCL devices.
  user <- devices : available OpenCL devices
end

group Initialisation
  user -> user : Choose most appropriate\nplatform and device(s)

  user -> opencl_context : Construct OpenCL Context for platform and device(s)

  devices -> opencl_context : Context devices

  opencl_context -> opencl_queue : Create device\ncommand_queue(s)

  user -> opencl_context : Construct and build programs: source, binary and/or IL
  opencl_context -> opencl_program : Build program
  opencl_context -> opencl_kernel : Construct kernels for program

  user -> opencl_context : Create OpenCL memory
  opencl_context -> opencl_memory : Create: buffers, images, samplers, pipes, svm, etc.
end

group Compute Data
  user -> opencl_context : get kernel(s)

  group loop
    user -> opencl_memory : Write input data to OpenCL memory
    user -> opencl_queue : execute kernel(s)
    user <- opencl_memory : Read output data from OpenCL memory
    user <- opencl_queue : wait for events or queue finished
  end
end

group Clean Up
  user -> opencl_context : drop context

  opencl_context -> opencl_memory : release: buffers, images, samplers, pipes, svm, etc.
  opencl_context -> opencl_kernel : release kernels
  opencl_context -> opencl_program : release programs
  opencl_context -> opencl_queue : release command_queues
  opencl_context -> opencl_context : release context
end

@enduml

PlantUML version 1.2020.26(Mon Dec 21 17:45:07 GMT 2020)
(GPL source distribution)
Java Runtime: Java(TM) SE Runtime Environment
JVM: Java HotSpot(TM) Client VM
Default Encoding: Cp1252
Language: en
Country: GB
--></g></svg>